<mxfile host="Electron" agent="Mozilla/5.0 (Windows NT 10.0; Win64; x64) AppleWebKit/537.36 (KHTML, like Gecko) draw.io/26.2.2 Chrome/134.0.6998.178 Electron/35.1.2 Safari/537.36" version="26.2.2">
  <diagram name="PÃ¡gina-1" id="VqLqr_oehTiEtZfxVfmn">
    <mxGraphModel dx="2040" dy="1201" grid="1" gridSize="10" guides="1" tooltips="1" connect="1" arrows="1" fold="1" page="1" pageScale="1" pageWidth="827" pageHeight="1169" background="none" math="0" shadow="0">
      <root>
        <mxCell id="0" />
        <mxCell id="1" parent="0" />
        <mxCell id="OZowoA4bBWBgJgyGV1VT-5" value="" style="rounded=0;whiteSpace=wrap;html=1;" vertex="1" parent="1">
          <mxGeometry y="40" width="1000" height="330" as="geometry" />
        </mxCell>
        <mxCell id="yt6BolCJ6O4ZZ3NJw7HE-9" style="edgeStyle=orthogonalEdgeStyle;rounded=0;orthogonalLoop=1;jettySize=auto;html=1;fontSize=25;entryX=0.5;entryY=1;entryDx=0;entryDy=0;exitX=0.25;exitY=0;exitDx=0;exitDy=0;" parent="1" source="OZowoA4bBWBgJgyGV1VT-7" target="yt6BolCJ6O4ZZ3NJw7HE-7" edge="1">
          <mxGeometry relative="1" as="geometry">
            <mxPoint x="-260" y="390" as="sourcePoint" />
            <Array as="points">
              <mxPoint x="250" y="430" />
              <mxPoint x="86" y="430" />
            </Array>
          </mxGeometry>
        </mxCell>
        <mxCell id="OZowoA4bBWBgJgyGV1VT-10" value="&lt;font style=&quot;font-size: 25px;&quot;&gt;&lt;b style=&quot;&quot;&gt;Sends Telemetry Reports&lt;/b&gt;&lt;/font&gt;" style="edgeLabel;html=1;align=center;verticalAlign=middle;resizable=0;points=[];" vertex="1" connectable="0" parent="yt6BolCJ6O4ZZ3NJw7HE-9">
          <mxGeometry x="-0.9218" y="2" relative="1" as="geometry">
            <mxPoint x="42" y="-39" as="offset" />
          </mxGeometry>
        </mxCell>
        <mxCell id="yt6BolCJ6O4ZZ3NJw7HE-2" value="&lt;b&gt;SDN Controller&lt;/b&gt;" style="verticalLabelPosition=bottom;sketch=0;html=1;fillColor=#6ABD46;strokeColor=#ffffff;verticalAlign=top;align=center;points=[[0.085,0.085,0],[0.915,0.085,0],[0.915,0.915,0],[0.085,0.915,0],[0.25,0,0],[0.5,0,0],[0.75,0,0],[1,0.25,0],[1,0.5,0],[1,0.75,0],[0.75,1,0],[0.5,1,0],[0.25,1,0],[0,0.75,0],[0,0.5,0],[0,0.25,0]];pointerEvents=1;shape=mxgraph.cisco_safe.compositeIcon;bgIcon=mxgraph.cisco_safe.architecture.generic_appliance;resIcon=mxgraph.cisco_safe.architecture.aci_controller;fontSize=25;" parent="1" vertex="1">
          <mxGeometry x="870" y="175" width="57" height="60" as="geometry" />
        </mxCell>
        <mxCell id="yt6BolCJ6O4ZZ3NJw7HE-4" value="&lt;b&gt;Database&lt;/b&gt;" style="shape=datastore;whiteSpace=wrap;html=1;fontSize=25;" parent="1" vertex="1">
          <mxGeometry x="245" y="241" width="120" height="110" as="geometry" />
        </mxCell>
        <mxCell id="yt6BolCJ6O4ZZ3NJw7HE-5" value="&lt;b&gt;Grafana&lt;/b&gt;" style="aspect=fixed;html=1;points=[];align=center;image;fontSize=25;image=img/lib/azure2/other/Grafana.svg;" parent="1" vertex="1">
          <mxGeometry x="265" y="54" width="93.76" height="72.8" as="geometry" />
        </mxCell>
        <mxCell id="yt6BolCJ6O4ZZ3NJw7HE-8" style="edgeStyle=orthogonalEdgeStyle;rounded=0;orthogonalLoop=1;jettySize=auto;html=1;exitX=1;exitY=0.5;exitDx=0;exitDy=0;entryX=0;entryY=0.5;entryDx=0;entryDy=0;fontSize=25;" parent="1" source="yt6BolCJ6O4ZZ3NJw7HE-7" target="yt6BolCJ6O4ZZ3NJw7HE-4" edge="1">
          <mxGeometry relative="1" as="geometry">
            <mxPoint x="252" y="296.0000000000002" as="targetPoint" />
            <Array as="points">
              <mxPoint x="190" y="88" />
              <mxPoint x="190" y="296" />
            </Array>
          </mxGeometry>
        </mxCell>
        <mxCell id="yt6BolCJ6O4ZZ3NJw7HE-15" value="&lt;b&gt;Writes&lt;/b&gt;" style="edgeLabel;html=1;align=center;verticalAlign=middle;resizable=0;points=[];fontSize=25;" parent="yt6BolCJ6O4ZZ3NJw7HE-8" vertex="1" connectable="0">
          <mxGeometry x="0.1754" y="2" relative="1" as="geometry">
            <mxPoint x="1" y="9" as="offset" />
          </mxGeometry>
        </mxCell>
        <mxCell id="yt6BolCJ6O4ZZ3NJw7HE-7" value="&lt;b&gt;INT Collector&lt;/b&gt;" style="aspect=fixed;perimeter=ellipsePerimeter;html=1;align=center;shadow=0;dashed=0;spacingTop=3;image;image=img/lib/active_directory/mainframe_host.svg;fontSize=25;" parent="1" vertex="1">
          <mxGeometry x="63" y="56.3" width="46.08" height="64" as="geometry" />
        </mxCell>
        <mxCell id="p_7pogcTV9KLCBR6zQ41-3" value="&lt;b&gt;Reads&lt;/b&gt;" style="edgeStyle=orthogonalEdgeStyle;rounded=0;orthogonalLoop=1;jettySize=auto;html=1;exitX=0.5;exitY=1;exitDx=0;exitDy=0;exitPerimeter=0;fontSize=25;entryX=1;entryY=0.7;entryDx=0;entryDy=0;" parent="1" source="p_7pogcTV9KLCBR6zQ41-1" target="yt6BolCJ6O4ZZ3NJw7HE-4" edge="1">
          <mxGeometry x="-0.3056" y="2" relative="1" as="geometry">
            <Array as="points">
              <mxPoint x="665" y="318" />
            </Array>
            <mxPoint x="-440" y="421" as="targetPoint" />
            <mxPoint x="1" as="offset" />
          </mxGeometry>
        </mxCell>
        <mxCell id="p_7pogcTV9KLCBR6zQ41-1" value="INT Analyzer" style="html=1;whiteSpace=wrap;strokeColor=none;fillColor=#0079D6;labelPosition=center;verticalLabelPosition=middle;verticalAlign=top;align=center;fontSize=25;outlineConnect=0;spacingTop=-6;fontColor=#FFFFFF;sketch=0;shape=mxgraph.sitemap.script;" parent="1" vertex="1">
          <mxGeometry x="585" y="150" width="159.2" height="115.25" as="geometry" />
        </mxCell>
        <mxCell id="p_7pogcTV9KLCBR6zQ41-4" value="&lt;b&gt;Run Srv6&lt;/b&gt;&lt;div&gt;&lt;b&gt;&amp;nbsp;Commands&lt;/b&gt;&lt;/div&gt;" style="edgeStyle=orthogonalEdgeStyle;rounded=0;orthogonalLoop=1;jettySize=auto;html=1;exitX=0.5;exitY=0;exitDx=0;exitDy=0;exitPerimeter=0;entryX=0.5;entryY=0;entryDx=0;entryDy=0;entryPerimeter=0;fontSize=25;" parent="1" source="p_7pogcTV9KLCBR6zQ41-1" target="yt6BolCJ6O4ZZ3NJw7HE-2" edge="1">
          <mxGeometry x="-0.0442" relative="1" as="geometry">
            <mxPoint x="643.5999999999999" y="132" as="sourcePoint" />
            <mxPoint x="998.5" y="157" as="targetPoint" />
            <Array as="points">
              <mxPoint x="665" y="90" />
              <mxPoint x="898" y="90" />
            </Array>
            <mxPoint as="offset" />
          </mxGeometry>
        </mxCell>
        <mxCell id="p_7pogcTV9KLCBR6zQ41-6" value="&lt;font style=&quot;font-size: 25px;&quot;&gt;&lt;b&gt;Visualizer&lt;/b&gt;&lt;/font&gt;" style="sketch=0;pointerEvents=1;shadow=0;dashed=0;html=1;strokeColor=none;fillColor=#505050;labelPosition=center;verticalLabelPosition=bottom;verticalAlign=top;outlineConnect=0;align=center;shape=mxgraph.office.servers.topology_builder;fontSize=25;" parent="1" vertex="1">
          <mxGeometry x="432" y="53.799999999999955" width="70" height="69" as="geometry" />
        </mxCell>
        <mxCell id="OZowoA4bBWBgJgyGV1VT-7" value="&lt;b&gt;&lt;font style=&quot;font-size: 25px;&quot;&gt;P4 Switches&lt;/font&gt;&lt;/b&gt;" style="rounded=0;whiteSpace=wrap;html=1;" vertex="1" parent="1">
          <mxGeometry y="490" width="1000" height="170" as="geometry" />
        </mxCell>
        <mxCell id="OZowoA4bBWBgJgyGV1VT-9" value="&lt;b&gt;&lt;font style=&quot;font-size: 25px;&quot;&gt;Control Plane&lt;/font&gt;&lt;/b&gt;" style="text;html=1;align=center;verticalAlign=middle;resizable=0;points=[];autosize=1;strokeColor=none;fillColor=none;fontSize=18;" vertex="1" parent="1">
          <mxGeometry width="190" height="40" as="geometry" />
        </mxCell>
        <mxCell id="OZowoA4bBWBgJgyGV1VT-11" value="&lt;b&gt;&lt;font style=&quot;font-size: 25px;&quot;&gt;Manages&lt;/font&gt;&lt;/b&gt;" style="edgeStyle=orthogonalEdgeStyle;rounded=0;orthogonalLoop=1;jettySize=auto;html=1;exitX=0.5;exitY=1;exitDx=0;exitDy=0;exitPerimeter=0;entryX=0.9;entryY=0.019;entryDx=0;entryDy=0;entryPerimeter=0;" edge="1" parent="1" source="yt6BolCJ6O4ZZ3NJw7HE-2" target="OZowoA4bBWBgJgyGV1VT-7">
          <mxGeometry x="0.425" relative="1" as="geometry">
            <mxPoint x="1303.5" y="260" as="sourcePoint" />
            <mxPoint x="1308.0000000000005" y="515.5099999999998" as="targetPoint" />
            <Array as="points">
              <mxPoint x="898" y="430" />
              <mxPoint x="900" y="430" />
            </Array>
            <mxPoint as="offset" />
          </mxGeometry>
        </mxCell>
        <mxCell id="OZowoA4bBWBgJgyGV1VT-12" value="&lt;b&gt;&lt;font style=&quot;font-size: 25px;&quot;&gt;Data Plane&lt;/font&gt;&lt;/b&gt;" style="text;html=1;align=center;verticalAlign=middle;resizable=0;points=[];autosize=1;strokeColor=none;fillColor=none;fontSize=18;" vertex="1" parent="1">
          <mxGeometry y="450" width="150" height="40" as="geometry" />
        </mxCell>
        <mxCell id="p_7pogcTV9KLCBR6zQ41-7" style="edgeStyle=orthogonalEdgeStyle;rounded=0;orthogonalLoop=1;jettySize=auto;html=1;entryX=1;entryY=0.3;entryDx=0;entryDy=0;fontSize=25;" parent="1" source="p_7pogcTV9KLCBR6zQ41-6" target="yt6BolCJ6O4ZZ3NJw7HE-4" edge="1">
          <mxGeometry relative="1" as="geometry">
            <Array as="points">
              <mxPoint x="467" y="274" />
            </Array>
            <mxPoint x="377" y="274" as="targetPoint" />
          </mxGeometry>
        </mxCell>
        <mxCell id="6R4ueeL0Bs8kGJtLsEFX-3" value="&lt;font style=&quot;font-size: 25px;&quot;&gt;&lt;b&gt;Reads&lt;/b&gt;&lt;/font&gt;" style="edgeLabel;html=1;align=center;verticalAlign=middle;resizable=0;points=[];fontSize=25;fontFamily=Helvetica;" parent="p_7pogcTV9KLCBR6zQ41-7" vertex="1" connectable="0">
          <mxGeometry x="0.169" y="-1" relative="1" as="geometry">
            <mxPoint x="4" y="-66" as="offset" />
          </mxGeometry>
        </mxCell>
        <mxCell id="yt6BolCJ6O4ZZ3NJw7HE-13" style="edgeStyle=orthogonalEdgeStyle;rounded=0;orthogonalLoop=1;jettySize=auto;html=1;fontSize=25;exitX=0.477;exitY=0.961;exitDx=0;exitDy=0;exitPerimeter=0;entryX=0.5;entryY=0;entryDx=0;entryDy=0;" parent="1" source="yt6BolCJ6O4ZZ3NJw7HE-5" edge="1">
          <mxGeometry relative="1" as="geometry">
            <Array as="points">
              <mxPoint x="311" y="241" />
            </Array>
            <mxPoint x="312" y="241" as="targetPoint" />
          </mxGeometry>
        </mxCell>
        <mxCell id="yt6BolCJ6O4ZZ3NJw7HE-14" value="&lt;b&gt;Reads&lt;/b&gt;" style="edgeLabel;html=1;align=center;verticalAlign=middle;resizable=0;points=[];fontSize=25;" parent="yt6BolCJ6O4ZZ3NJw7HE-13" vertex="1" connectable="0">
          <mxGeometry x="0.1431" y="3" relative="1" as="geometry">
            <mxPoint x="-1" y="14" as="offset" />
          </mxGeometry>
        </mxCell>
      </root>
    </mxGraphModel>
  </diagram>
</mxfile>
